<svg enable-background="new 0 0 230 207.2" viewBox="0 0 230 207.2" xmlns="http://www.w3.org/2000/svg"><path d="m69.9 202.8s-1.2.3-2.4.3-3.9-.4-3.2-.4c.6 0 1.4-1.2 1.4-1.2l-1-.1v-.9h1.7l11.6-27.7s1.5 0 1.5-.1c-1.5 0-2.4.1-2.5-.1.1-.3 12.6-30.6 12.9-31.3.1-.3 1.4-.1 1.4-.1l1.1-7.8h-1s2.1-16.4 1.9-16.9c-.3-.4-16.7.4-27.8-.4s-17.1-2.1-19.2-2.7c-2-.5-2.4-.1-3.3 1-.8 1-15.2 22-16.4 23.7s-1.8 1.8-2.5 1.8c-1 0-7.3 0-7.3 0l6.5-29.2s-2.7-.1-3.1-.6c-.4-.4-.2-1.3-.2-1.3s-5.6-.6-5.9-.9c-.4-.3-.5-.9-.5-.9s-5.7-1.3-5.9-1.9c.1-.6 5.9-1.9 5.9-1.9s.2-.6.5-.9c.4-.3 5.9-.9 5.9-.9s-.1-.9.2-1.3 3.1-.6 3.1-.6l-6.6-29.2h7.3c.7 0 1.3 0 2.5 1.8 1.3 1.8 15.6 22.7 16.4 23.7s1.3 1.5 3.3 1c2.1-.6 8.1-1.9 19.2-2.7s27.3-.1 27.6-.6c.3-.4-1.9-16.9-1.9-16.9h1l-1.1-7.8s-1.3.1-1.4-.1c-.3-.7-12.8-31-12.9-31.3.1-.2 1.1-.1 2.5-.1 0-.1-1.5-.1-1.5-.1l-11.5-27.8h-1.7v-.9l1-.1s-.7-1.2-1.4-1.2c-.6 0 2.1-.4 3.2-.4 1.3 0 2.4.3 2.4.3s-.3-1 .9-.8c.7.1 4.1 2.5 4.1 2.5s.5.2.9.1c.4 0 .7.5.9.8.1.2.9 0 .9 0s7.3 9.2 18.7 25.1c11.4 15.8 25.3 34.6 25.3 34.6s.8 0 1.9-.2 1.6-.3 1.6-.3.3-1 1-1.2c.5-.2 4.5-.7 8-.6s5.4.3 6 .6.8 1.1 1 2.3c.1 1.2.1 5.7-.1 6.8-.1 1-.3 1.7-1.6 1.9-1.4.2-6.1.2-8 .1-1.4-.1-2.9-.5-3-.3s3.3 4 4.7 6.1 4.2 5.7 5.1 6.1 1 .5.2.7c-.8.3-1.6.2-2.2-.1-.6-.4-1.3-.5-1.6-.2-.1.1.7 1.2 1.2 1.4.5.3 1.4 0 1.8.2s1.6.9 2.5.8c5.7-.2 14.4-.4 33.2-.4 20.1-.1 26.2.1 36.9 2.9 9.8 2.5 11.7 4.4 13.1 5.3 1.3.9 2.3 2.9 2.3 3.7 0 .8-1 2.8-2.3 3.7-1.4 1-3.3 2.8-13.1 5.3-10.8 2.7-16.8 2.9-36.9 2.9-18.8-.1-27.4-.3-33.2-.4-1 0-2.1.7-2.5.8-.4.2-1.3-.1-1.8.2s-1.3 1.3-1.2 1.4c.3.4 1 .2 1.6-.2s1.4-.4 2.2-.1.7.3-.2.7-3.8 4-5.1 6.1c-1.4 2.1-4.8 5.9-4.7 6.1s1.6-.2 3-.3c1.9-.1 6.6-.1 8 .1s1.5.8 1.6 1.9.2 5.7.1 6.8-.4 2-1 2.3-2.4.5-6 .6c-3.5.1-7.5-.4-8-.6-.7-.3-1-1.2-1-1.2s-.5-.1-1.6-.3-1.9-.2-1.9-.2-14 18.8-25.3 34.6c-11.4 15.9-18.7 25.1-18.7 25.1s-.7-.2-.9 0c-.2.3-.5.8-.9.8s-.9.1-.9.1-3.3 2.4-4.1 2.5c-1 .1-.7-.9-.7-.9zm8.5-190-1.4-1.9-.2.1 1.3 1.8zm2.6 3.7-2.5-3.5-.2.2 2.4 3.5zm2.6 3.7-2.5-3.5-.2.1 2.4 3.5zm3.3 4.6-3.2-4.4-.2.1 3.2 4.5zm3 4.3-2.8-4.1-.2.1 2.9 4.1zm3.1 4.4-2.9-4.1-.2.1 2.9 4.1zm3.2 4.4-3-4.3-.2.2 3 4.3zm3.2 4.6-3.1-4.3-.2.2 3 4.3zm3.2 4.5-3-4.3-.2.1 3 4.3zm3.1 4.4-3-4.3-.2.1 3 4.3zm3.1 4.3-2.9-4.1-.2.1 2.9 4.1zm3 4.2-2.9-4.1-.2.1 2.9 4.1zm3.6 5.1-3.4-4.8-.2.1 3.4 4.8zm.9 1.3-.8-1.1-.2.1.8 1.1zm3 4.1-2.8-3.9-.2.1 2.8 4zm0 69.1-.2-.1-2.8 4 .2.1zm-3 4.1-.2-.1-.8 1.1.2.1zm-.9 1.4-.2-.1-3.4 4.8.2.1zm-3.6 5-.2-.1-2.9 4.1.2.1zm-3 4.3-.2-.1-2.9 4.1.2.1zm-3.1 4.2-.2-.1-3 4.3.2.1zm-3.1 4.5-.2-.1-3 4.2.2.1zm-3.2 4.5-.2-.1-3 4.3.2.2zm-3.2 4.5-.2-.2-3 4.3.2.1zm-3.2 4.5-.2-.1-2.9 4.1.2.1zm-3.1 4.3-.2-.1-2.9 4.1.2.1zm-3 4.3-.2-.1-3.2 4.5.2.1zm-3.3 4.7-.2-.1-2.4 3.5.2.1zm-2.6 3.7-.2-.1-2.4 3.5.2.2zm-2.6 3.6-.2-.2-1.3 1.8.1.3z" fill="#faa718"/></svg>