<svg version="1" xmlns="http://www.w3.org/2000/svg" width="341.333" height="341.333" viewBox="0 0 256.000000 256.000000"><path d="M134.9 6.9c-.3 1.9-.4 23.8-.2 24.6.2.6 1.8 1 3.6 1 5.8-.1 16.1 1.4 23.2 3.6 34.6 10.4 58.5 41.3 60 77.4.9 23.5-8.1 45.8-25.3 62.9-9.6 9.6-25.9 18.7-38.7 21.6-2.8.7-6.1 1.4-7.5 1.7-1.4.4-7.4.6-13.5.5-16.3-.1-30.8-4.4-44.9-13.4-4-2.6-5.4-4.3-7.7-9.6-1.6-3.5-2.9-6.9-2.9-7.6 0-1 6.2-2.9 16.5-5 3.9-.8 32.1-7.6 38.3-9.3 7.6-2 9.2-3.5 6.7-6.3-4.5-4.9-14.1-8.5-28-10.5-2.2-.3-4.7-.7-5.5-1-.8-.2-3.1-.6-5-.9-5.5-.8-27.2-4.5-29.9-5-1.3-.3-4.9-.8-8-1.2-3.1-.3-5.9-.8-6.3-1-.3-.2-3.4-5.5-6.9-11.7-13.5-24.2-24.6-38.4-33-42.2-3.7-1.7-4.4-1.7-6.7-.4-3.1 1.7-4.4 5.8-3.7 12.4.9 10.3 4.1 18.9 14.5 40.2l8 16.1-9.1 18.9c-19 39.7-21 44.2-21.8 49.9-1.8 13 1 15.3 9.5 7.6 8-7.2 17.9-16 21.4-18.8 1.9-1.6 4-3.4 4.5-4 .6-.6 4.5-4.1 8.7-7.8L53 183l3.7 6c2.1 3.4 6.7 10.2 10.2 15.1l6.3 9-2.1 12.2c-3.1 17.3-3.4 23.3-1.4 27.4 1 2.1 2.2 3.3 3.2 3.1.9-.2 5.9-6 11.1-13 5.2-7 9.8-13 10.2-13.3.4-.4 6.7-.9 14-1.2 7.3-.2 15.1-.6 17.3-.8 2.2-.3 7.6-.7 12-.9 6.5-.3 19.4-1.6 21.5-2.1 23.8-5.5 42.2-15.7 58.1-32.2 27.7-28.7 37.3-69.7 25.3-109.1-11.1-36.7-43.6-66.1-82.2-74.2-9.6-2-25.1-3.3-25.3-2.1z"/><path d="M87.1 66.6c-3.9 5-3.3 6 14 24.5 6.4 6.8 13.1 14.1 14.8 16.1 1.8 2 4.1 4 5.2 4.3 1.6.5 1.8 1.2 1.3 4.4-.8 5 2.3 12 6.6 15.1 6.6 4.7 17.2 3.3 21.8-2.9 2.6-3.5 4.1-9.1 3.5-12.5-.3-1.4-.1-2.6.5-2.6 1 0 18.7-14.4 25-20.3 3.7-3.5 4.1-6.8 1.2-9.7-3.9-3.9-6.6-2.7-21 9.5-9.4 8-14 11.3-15 10.8-.8-.4-4.2-.8-7.5-.8h-6l-5.5-6c-3-3.3-8.2-8.9-11.6-12.5-3.4-3.6-8.9-9.5-12.4-13.3-5.3-5.6-6.8-6.7-9.6-6.7-2.3 0-3.8.7-5.3 2.6z"/></svg>